<?xml version="1.0" standalone="no"?>
<!DOCTYPE svg PUBLIC "-//W3C//DTD SVG 20010904//EN"
 "http://www.w3.org/TR/2001/REC-SVG-20010904/DTD/svg10.dtd">
<svg version="1.0" xmlns="http://www.w3.org/2000/svg"
 width="161.000000pt" height="313.000000pt" viewBox="0 0 161.000000 313.000000"
 preserveAspectRatio="xMidYMid meet">

<g transform="translate(0.000000,313.000000) scale(0.100000,-0.100000)"
fill="#000000" stroke="none">
<path d="M978 3120 c-228 -39 -417 -179 -518 -385 -60 -122 -72 -176 -77 -377
l-5 -178 -174 0 c-144 0 -175 -3 -188 -16 -24 -23 -24 -588 0 -622 15 -21 21
-22 190 -22 l174 0 0 -743 c0 -708 1 -745 18 -760 16 -15 53 -17 314 -17 273
0 296 1 311 18 16 17 17 84 17 760 l0 742 218 0 c159 0 223 3 235 13 16 11 22
42 112 584 11 62 5 63 -296 63 l-269 0 0 133 c0 90 4 137 12 145 9 9 82 12
268 12 236 0 258 1 273 18 15 16 17 53 17 315 0 255 -2 298 -16 311 -13 14
-53 16 -292 15 -152 -1 -298 -5 -324 -9z m542 -320 l0 -240 -232 0 c-215 0
-236 -2 -266 -20 -65 -40 -72 -65 -72 -252 0 -138 3 -169 16 -182 13 -14 53
-16 280 -16 145 0 264 -3 264 -7 0 -5 -18 -111 -38 -238 l-38 -230 -233 -5
c-191 -4 -233 -8 -241 -20 -6 -9 -10 -308 -10 -757 l0 -743 -240 0 -240 0 0
744 c0 664 -2 746 -16 760 -13 13 -45 16 -190 16 l-174 0 0 240 0 240 174 0
c145 0 177 3 190 16 13 13 16 46 16 207 0 215 13 288 73 402 47 91 174 213
267 258 125 61 155 66 448 66 l262 1 0 -240z"/>
</g>
</svg>
