<?xml version="1.0" standalone="no"?>
<!DOCTYPE svg PUBLIC "-//W3C//DTD SVG 20010904//EN"
 "http://www.w3.org/TR/2001/REC-SVG-20010904/DTD/svg10.dtd">
<svg version="1.0" xmlns="http://www.w3.org/2000/svg"
 width="222.000000pt" height="227.000000pt" viewBox="0 0 222.000000 227.000000"
 preserveAspectRatio="xMidYMid meet">

<g transform="translate(0.000000,227.000000) scale(0.100000,-0.100000)"
fill="#000000" stroke="none">
<path d="M257 2229 c-90 -21 -176 -91 -218 -177 l-24 -47 0 -870 0 -870 24
-47 c31 -64 95 -126 161 -157 l55 -26 855 0 855 0 67 33 c78 38 129 94 159
172 18 48 19 85 19 895 0 810 -1 847 -19 895 -30 78 -81 134 -159 172 l-67 33
-835 2 c-467 1 -852 -3 -873 -8z m1716 -178 c72 -44 77 -68 77 -341 l0 -240
-223 0 -223 0 -47 54 c-61 71 -164 138 -262 172 -144 49 -312 36 -450 -33 -65
-33 -152 -103 -190 -153 l-30 -39 -227 -1 -228 0 0 237 c0 217 2 240 20 277
28 56 64 80 130 86 30 3 406 5 835 5 l781 -1 37 -23z m-737 -506 c121 -36 239
-149 281 -268 24 -71 24 -213 0 -284 -28 -79 -98 -167 -169 -214 -87 -56 -151
-72 -262 -67 -76 3 -101 9 -156 35 -170 82 -275 279 -242 455 29 157 136 285
283 338 67 24 194 26 265 5z m-700 -262 c-3 -16 -9 -68 -12 -118 -19 -276 156
-518 431 -601 95 -29 239 -24 340 10 97 33 199 100 260 169 57 64 120 191 136
275 11 61 8 222 -7 270 l-6 22 186 0 186 0 0 -496 c0 -557 2 -543 -73 -592
l-40 -27 -771 -1 c-424 0 -801 2 -838 7 -78 8 -110 28 -138 85 -19 39 -20 59
-20 532 l0 492 186 0 186 0 -6 -27z"/>
<path d="M1615 1955 c-24 -23 -25 -29 -25 -160 0 -131 1 -137 25 -160 23 -24
29 -25 155 -25 l132 0 29 29 c33 33 35 50 14 90 -18 37 -31 41 -121 41 l-74 0
0 80 c0 73 -3 83 -25 105 -15 16 -36 25 -55 25 -19 0 -40 -9 -55 -25z"/>
</g>
</svg>
