<?xml version="1.0" standalone="no"?>
<!DOCTYPE svg PUBLIC "-//W3C//DTD SVG 20010904//EN"
 "http://www.w3.org/TR/2001/REC-SVG-20010904/DTD/svg10.dtd">
<svg version="1.0" xmlns="http://www.w3.org/2000/svg"
 width="980.000000pt" height="980.000000pt" viewBox="0 0 980.000000 980.000000"
 preserveAspectRatio="xMidYMid meet">

<g transform="translate(0.000000,980.000000) scale(0.100000,-0.100000)"
fill="#000000" stroke="none">
<path d="M675 9785 c-319 -58 -573 -278 -652 -565 -17 -62 -18 -261 -18 -4285
l0 -4220 23 -79 c91 -315 356 -562 669 -622 64 -12 659 -14 4229 -14 3760 0
4162 2 4232 16 298 61 530 293 614 614 l23 85 0 4225 c0 4025 -1 4228 -18
4295 -75 292 -316 506 -627 555 -105 16 -8384 12 -8475 -5z m8299 -827 c14
-20 16 -422 16 -4061 l0 -4038 -25 -24 -24 -25 -4019 0 c-2909 0 -4028 3
-4051 11 -17 6 -36 19 -41 29 -16 29 -13 8103 2 8118 9 9 927 12 4069 12
l4058 0 15 -22z"/>
<path d="M2315 8164 c-94 -10 -196 -39 -285 -81 -178 -85 -317 -258 -371 -460
-30 -110 -30 -306 0 -417 57 -213 192 -383 376 -471 96 -46 172 -65 295 -72
369 -21 663 168 772 496 30 90 32 105 32 241 1 111 -4 161 -18 215 -88 329
-335 528 -681 548 -44 2 -98 3 -120 1z"/>
<path d="M6400 6093 c-261 -26 -487 -104 -679 -236 -100 -69 -280 -250 -361
-364 -36 -51 -68 -92 -72 -92 -5 -1 -8 134 -8 299 l0 300 -700 0 -700 0 0
-2185 0 -2185 700 0 700 0 0 1243 c0 698 5 1296 10 1365 17 215 90 373 244
528 90 90 174 142 294 182 69 23 92 26 227 26 136 0 158 -3 231 -27 236 -79
386 -275 452 -595 14 -67 16 -240 21 -1397 l6 -1320 703 -3 703 -2 -4 1412
c-3 1261 -5 1426 -21 1531 -73 513 -228 855 -509 1124 -240 229 -530 355 -906
393 -97 9 -252 11 -331 3z"/>
<path d="M1630 3815 l0 -2185 700 0 700 0 0 2185 0 2185 -700 0 -700 0 0
-2185z"/>
</g>
</svg>
